HIERARCHY
ROOT Hips
{
	OFFSET 0.000000 0.000000 0.000000
	CHANNELS 6 Xposition Yposition Zposition Xrotation Yrotation Zrotation
	JOINT LeftUpLeg_virtual
	{
		OFFSET 0.000000 0.000000 0.000000
		CHANNELS 3 Xrotation Yrotation Zrotation
		JOINT LeftUpLeg
		{
			OFFSET 10.205400 -3.823500 0.155100
			CHANNELS 3 Xrotation Yrotation Zrotation
			JOINT LeftLeg
			{
				OFFSET 0.708757 -12.982077 0.567790
				CHANNELS 3 Xrotation Yrotation Zrotation
				JOINT LeftFoot
				{
					OFFSET -0.708756 -10.717838 -2.184338
					CHANNELS 3 Xrotation Yrotation Zrotation
					JOINT LeftToeBase
					{
						OFFSET 0.108149 -7.191104 7.560241
						CHANNELS 3 Xrotation Yrotation Zrotation
						JOINT LeftToe_End
						{
							OFFSET 0.070230 0.081724 4.490308
							CHANNELS 3 Xrotation Yrotation Zrotation
							End Site
							{
								OFFSET 0 0 0
							}
						}
					}
				}
			}
		}
	}
	JOINT RightUpLeg_virtual
	{
		OFFSET 0.000000 0.000000 0.000000
		CHANNELS 3 Xrotation Yrotation Zrotation
		JOINT RightUpLeg
		{
			OFFSET -10.205400 -3.823500 0.005500
			CHANNELS 3 Xrotation Yrotation Zrotation
			JOINT RightLeg
			{
				OFFSET -0.708756 -12.982134 0.610632
				CHANNELS 3 Xrotation Yrotation Zrotation
				JOINT RightFoot
				{
					OFFSET 0.708754 -10.717769 -1.945823
					CHANNELS 3 Xrotation Yrotation Zrotation
					JOINT RightToeBase
					{
						OFFSET -0.108140 -7.191069 7.372968
						CHANNELS 3 Xrotation Yrotation Zrotation
						JOINT RightToe_End
						{
							OFFSET -0.070227 0.081735 4.479403
							CHANNELS 3 Xrotation Yrotation Zrotation
							End Site
							{
								OFFSET 0 0 0
							}
						}
					}
				}
			}
		}
	}
	JOINT Spine_virtual
	{
		OFFSET 0.000000 0.000000 0.000000
		CHANNELS 3 Xrotation Yrotation Zrotation
		JOINT Spine
		{
			OFFSET 0.000000 6.876099 0.125700
			CHANNELS 3 Xrotation Yrotation Zrotation
			JOINT Spine1
			{
				OFFSET 0.000000 5.730043 0.104720
				CHANNELS 3 Xrotation Yrotation Zrotation
				JOINT Spine1_split
				{
					OFFSET 0.000000 5.730043 0.104720
					CHANNELS 3 Xrotation Yrotation Zrotation
					JOINT Spine2
					{
						OFFSET 0.000000 5.730043 0.104720
						CHANNELS 3 Xrotation Yrotation Zrotation
						JOINT Neck_virtual
						{
							OFFSET 0.000000 0.000000 0.000000
							CHANNELS 3 Xrotation Yrotation Zrotation
							JOINT Neck
							{
								OFFSET 0.000000 10.314075 0.188496
								CHANNELS 3 Xrotation Yrotation Zrotation
								JOINT Head
								{
									OFFSET 0.000000 7.643700 -2.377400
									CHANNELS 3 Xrotation Yrotation Zrotation
									JOINT HeadTop_End
									{
										OFFSET 0.000000 43.788605 -13.619600
										CHANNELS 3 Xrotation Yrotation Zrotation
										End Site
										{
											OFFSET 0 0 0
										}
									}
								}
							}
						}
						JOINT LeftShoulder_virtual
						{
							OFFSET 0.000000 0.000000 0.000000
							CHANNELS 3 Xrotation Yrotation Zrotation
							JOINT LeftShoulder
							{
								OFFSET 2.196100 4.412489 0.087492
								CHANNELS 3 Xrotation Yrotation Zrotation
								JOINT LeftShoulder_split
								{
									OFFSET 2.196100 4.412489 0.087492
									CHANNELS 3 Xrotation Yrotation Zrotation
									JOINT LeftArm
									{
										OFFSET 8.771219 -2.981674 -0.026999
										CHANNELS 3 Xrotation Yrotation Zrotation
										JOINT LeftForeArm
										{
											OFFSET 8.512804 0.000000 -0.000000
											CHANNELS 3 Xrotation Yrotation Zrotation
											JOINT LeftHand
											{
												OFFSET 18.484802 0.000000 -0.000000
												CHANNELS 3 Xrotation Yrotation Zrotation
												End Site
												{
													OFFSET 0 0 0
												}
											}
										}
									}
								}
							}
						}
						JOINT RightShoulder_virtual
						{
							OFFSET 0.000000 0.000000 0.000000
							CHANNELS 3 Xrotation Yrotation Zrotation
							JOINT RightShoulder
							{
								OFFSET -2.196100 4.412496 0.070690
								CHANNELS 3 Xrotation Yrotation Zrotation
								JOINT RightShoulder_split
								{
									OFFSET -2.196100 4.412496 0.070690
									CHANNELS 3 Xrotation Yrotation Zrotation
									JOINT RightArm
									{
										OFFSET -8.771282 -2.981682 -0.094208
										CHANNELS 3 Xrotation Yrotation Zrotation
										JOINT RightForeArm
										{
											OFFSET -8.494598 0.000000 0.000000
											CHANNELS 3 Xrotation Yrotation Zrotation
											JOINT RightHand
											{
												OFFSET -18.483803 0.000000 0.000001
												CHANNELS 3 Xrotation Yrotation Zrotation
												End Site
												{
													OFFSET 0 0 0
												}
											}
										}
									}
								}
							}
						}
					}
				}
			}
		}
	}
}
MOTION
Frames: 8
Frame Time: 0.03333333
26.507702 34.477703 65.172890 0.000000 0.000000 0.000000 -6.892383 38.811416 9.185649 -21.650066 7.602308 -15.208668 30.314176 -10.701467 -0.680678 25.336781 2.036447 15.738387 -28.836813 -0.282516 4.877211 0.000000 0.000000 0.000000 -6.668506 39.979761 8.744756 -12.231808 13.006981 1.471538 53.183408 -5.401287 -3.205491 15.788945 -6.042715 -5.272942 -47.259489 -1.532096 6.881081 0.000000 0.000000 0.000000 -6.097506 38.806987 8.424389 3.526832 -2.268118 -4.971945 -0.988513 -1.199417 1.061005 0.588597 0.663701 0.129093 0.000000 0.000000 0.000000 -1.933668 -1.090136 1.233740 -9.047401 3.271733 2.250643 7.356678 5.849214 -2.159605 0.000000 0.000000 0.000000 -2.347398 -0.902833 1.437624 1.177596 8.965381 -3.986990 1.080917 2.106613 -1.116614 8.413152 -9.402777 -67.162985 11.109132 -23.772508 4.166873 0.000000 0.000000 0.000000 -2.006427 -1.153557 1.124505 1.455626 1.942044 4.435938 0.066939 1.535948 -2.468949 0.237271 7.346656 76.722190 10.979833 15.834219 -2.498565 0.000000 0.000000 0.000000 
27.537903 34.828495 66.463051 0.000000 0.000000 0.000000 -6.036802 40.670805 7.370391 -17.568418 6.043609 -14.625383 28.808413 -10.533187 -0.120551 19.043116 4.765073 16.993446 -26.095562 0.707751 3.138001 0.000000 0.000000 0.000000 -6.008201 41.419275 6.997016 -19.832083 13.528208 2.347063 49.247703 -4.770783 -3.153671 17.618167 -4.900124 -5.616537 -38.780660 -1.367871 7.510437 0.000000 0.000000 0.000000 -5.628495 39.968167 6.999155 4.077692 -2.762543 -4.503910 -1.185009 -1.534153 1.242886 0.590879 0.814045 -0.002093 0.000000 0.000000 0.000000 -1.971000 -1.414873 1.476000 -9.087944 3.164554 2.712233 7.527294 5.902266 -2.820036 0.000000 0.000000 0.000000 -2.291388 -1.267768 1.677275 1.031870 8.011523 -3.626805 1.015111 2.566446 -1.102028 6.829546 -11.680122 -66.918300 11.356865 -24.293299 4.458302 0.000000 0.000000 0.000000 -2.127713 -1.490074 1.345086 1.127375 0.787135 5.249667 0.678959 1.769403 -2.652963 0.419694 6.376112 75.675907 10.808653 15.944450 -2.499212 0.000000 0.000000 0.000000 
28.665319 35.114002 67.748421 0.000000 0.000000 0.000000 -5.236703 42.982295 5.904502 -12.606920 5.743860 -14.016163 26.479462 -11.090943 0.063707 11.568209 5.304190 18.846280 -24.878324 1.371426 1.893069 0.000000 0.000000 0.000000 -5.143577 43.231979 5.429226 -25.901155 12.674814 2.083035 43.097988 -2.888024 -3.086576 22.627727 -2.104592 -3.045502 -34.510904 -0.895991 6.247379 0.000000 0.000000 0.000000 -5.140184 41.554632 5.835814 4.439705 -3.123264 -4.377905 -1.335137 -1.847510 1.409521 0.827223 0.937236 -0.208601 0.000000 0.000000 0.000000 -2.033317 -1.745442 1.694216 -9.140281 2.939119 3.397387 7.337524 5.981092 -3.485354 0.000000 0.000000 0.000000 -2.292491 -1.631376 1.863320 0.894602 6.986515 -3.234952 0.886632 2.817337 -1.136148 4.940052 -13.845792 -66.966385 11.539698 -24.314688 4.803462 0.000000 0.000000 0.000000 -2.194376 -1.825978 1.530302 0.807558 -0.379512 6.143601 1.218740 2.070718 -2.697940 0.787029 5.263888 74.713185 10.734534 16.200625 -2.617510 0.000000 0.000000 0.000000 
29.846079 35.250748 68.981392 0.000000 0.000000 0.000000 -4.752758 45.930116 5.253216 -8.112608 6.718064 -13.032317 24.228498 -13.329849 -0.447551 7.281162 3.046574 19.882635 -26.455969 1.335843 2.033123 0.000000 0.000000 0.000000 -4.294890 45.851070 4.464356 -29.895567 10.798037 0.824634 35.283238 -0.608245 -2.691072 27.857736 1.430004 -0.032786 -32.644049 -0.352570 3.832489 0.000000 0.000000 0.000000 -4.906457 43.772145 5.399351 4.659461 -3.453712 -4.756673 -1.396538 -2.156299 1.592837 0.828187 0.854190 -0.308957 0.000000 0.000000 0.000000 -2.147351 -2.059931 1.915023 -9.249504 2.602283 4.257804 6.845564 6.130356 -4.029593 0.000000 0.000000 0.000000 -2.353740 -1.968700 2.033665 0.751713 5.990404 -2.748080 0.767477 2.923956 -1.211453 2.864384 -15.629647 -67.295778 11.606349 -24.219704 5.169937 0.000000 0.000000 0.000000 -2.241038 -2.146095 1.715864 0.533439 -1.511151 7.020160 1.720333 2.460262 -2.598553 1.476156 4.225069 73.865354 10.807458 16.568936 -2.856498 0.000000 0.000000 0.000000 
30.987381 35.248127 70.137077 0.000000 0.000000 0.000000 -4.543897 49.213019 5.420525 -4.788882 8.522137 -11.886834 22.816255 -16.853632 -1.617034 6.989692 -0.694605 21.287842 -28.898838 0.781595 2.837569 0.000000 0.000000 0.000000 -3.422394 49.200581 4.171301 -31.884884 8.062716 -1.015713 27.492363 1.009566 -2.065706 31.542469 4.225038 1.161085 -30.917241 0.229653 1.244216 0.000000 0.000000 0.000000 -4.986306 46.655496 5.785309 4.750157 -3.873874 -5.673309 -1.341832 -2.451330 1.839007 0.859098 0.786136 -0.371413 0.000000 0.000000 0.000000 -2.292703 -2.330729 2.157959 -9.503061 2.149368 5.197036 6.222032 6.301974 -4.326351 0.000000 0.000000 0.000000 -2.433239 -2.253292 2.250065 0.600034 5.048907 -2.113111 0.768806 2.929645 -1.294359 0.765883 -16.845909 -67.828976 11.548350 -24.384076 5.565979 0.000000 0.000000 0.000000 -2.254516 -2.434063 1.944426 0.315059 -2.514784 7.868077 2.177667 2.971374 -2.332062 2.357155 3.365579 73.138902 11.000210 16.841199 -3.148726 0.000000 0.000000 0.000000 
32.089764 35.110458 71.347656 0.000000 0.000000 0.000000 -4.364406 52.300603 6.076857 -1.812335 10.755538 -10.928982 22.028333 -20.273680 -2.986492 7.885716 -4.340545 24.679799 -29.839761 0.194111 3.500251 0.000000 0.000000 0.000000 -2.792185 53.014057 4.523075 -33.023275 4.835649 -2.901548 21.196894 1.464591 -1.289171 33.659592 5.118255 0.248305 -28.548189 0.670414 -0.731232 0.000000 0.000000 0.000000 -5.318650 49.853353 6.819318 4.684715 -4.365142 -6.995913 -1.151389 -2.719473 2.149649 0.940222 0.742749 -0.342891 0.000000 0.000000 0.000000 -2.382145 -2.542257 2.443044 -9.920314 1.623647 6.133200 5.630690 6.421803 -4.277833 0.000000 0.000000 0.000000 -2.491848 -2.472138 2.544190 0.431510 4.188419 -1.332264 0.762711 2.856279 -1.413057 -1.206269 -17.377304 -68.501757 11.356580 -24.935723 5.952741 0.000000 0.000000 0.000000 -2.205886 -2.663097 2.244335 0.142759 -3.303653 8.661275 2.450376 3.304966 -1.853911 3.200791 2.690827 72.534574 11.226860 16.710237 -3.420258 0.000000 0.000000 0.000000 
33.105591 34.846828 72.528671 0.000000 0.000000 0.000000 -4.293486 55.152995 6.955864 1.057308 12.365269 -10.020320 21.910301 -23.134843 -3.904715 8.079639 -6.853392 27.608285 -28.945133 0.153130 3.463527 0.000000 0.000000 0.000000 -2.552232 56.777133 5.294303 -34.233437 1.899665 -4.121191 17.349208 1.368206 -0.655266 34.730962 4.554220 -1.659570 -25.996403 0.944887 -1.900817 0.000000 0.000000 0.000000 -6.102234 52.954183 8.251138 4.526371 -4.858066 -8.371773 -0.840031 -2.917297 2.518108 0.934185 0.617166 -0.256440 0.000000 0.000000 0.000000 -2.305752 -2.681114 2.755136 -10.365325 1.107081 6.925638 5.308090 6.350089 -3.888885 0.000000 0.000000 0.000000 -2.473055 -2.611816 2.889710 0.244770 3.503702 -0.461534 0.823045 2.726160 -1.574793 -2.840102 -17.323837 -69.235702 11.114278 -25.850644 6.284475 0.000000 0.000000 0.000000 -2.079250 -2.815271 2.603991 -0.027469 -3.747110 9.386169 2.400142 3.321128 -1.295131 3.753495 2.151524 71.993144 11.376127 15.937067 -3.588795 0.000000 0.000000 0.000000 
34.060951 34.528618 73.774727 0.000000 0.000000 0.000000 -4.374270 57.679349 7.637262 4.434149 12.778974 -9.429989 22.292634 -24.734833 -4.157926 4.809622 -7.877470 29.942047 -27.398515 0.646372 2.513653 0.000000 0.000000 0.000000 -2.550178 60.056767 5.913061 -35.603891 -0.343979 -4.311501 16.597437 1.061513 -0.274780 35.709916 3.328740 -3.407427 -24.854625 1.137235 -2.322509 0.000000 0.000000 0.000000 -6.947853 55.464305 9.419259 4.186056 -5.198652 -9.437383 -0.460032 -3.012416 2.878963 1.086065 0.762022 -0.207499 0.000000 0.000000 0.000000 -2.014089 -2.742785 3.047009 -10.750808 0.657315 7.450990 5.359981 6.081165 -3.270574 0.000000 0.000000 0.000000 -2.358721 -2.665420 3.242824 0.045471 3.005534 0.364499 0.919938 2.346691 -1.790029 -3.867252 -16.892142 -69.948842 10.878184 -26.796560 6.489182 0.000000 0.000000 0.000000 -1.844588 -2.883217 2.970287 -0.194442 -3.783618 10.068279 1.976922 3.078951 -0.802406 3.938900 1.700402 71.602505 11.418008 14.571722 -3.645475 0.000000 0.000000 0.000000 
